PathFileType	4	(X/Y/Z)	C:\Users\Basilio\Documents\Thesis Gigler\squatting_fais\c3dfiles\073\SLS_front_pre2\markers_experimental.trc
DataRate	CameraRate	NumFrames	NumMarkers	Units	OrigDataRate	OrigDataStartFrame	OrigNumFrames
200.000000	200.000000	4	61	mm	200.000000	1162	1328
Frame#	Time	FHD			LBHD			RBHD			C7			T10			CLAV			LSHO			LUUPA			LMUPA			LDUPA			LLEP			LMEP			LRAD			LUL			LRFIN			RSHO			RUPA1			RMUPA			RDUPA			RLEP			RMEP			RRAD			RUL			RUFIN			LASI			RASI			USACR			LSACR			RSACR			LTHI1			LTHI2			LTHI3			LTHI4			LLFC			LMFC			LTIB1			LTIB2			LTIB3			LTIB4			LLMAL			LMMAL			LHEE			LMT1			LMT2			LMT5			RTHI			RTHI2			RTHI3			RTHI4			RLFC			RMFC			RTIB1			RTIB2			RTIB3			RTIB4			RLMAL			RMMAL			RHEE			RMT1			RMT2			RMT5			
		X1	Y1	Z1	X2	Y2	Z2	X3	Y3	Z3	X4	Y4	Z4	X5	Y5	Z5	X6	Y6	Z6	X7	Y7	Z7	X8	Y8	Z8	X9	Y9	Z9	X10	Y10	Z10	X11	Y11	Z11	X12	Y12	Z12	X13	Y13	Z13	X14	Y14	Z14	X15	Y15	Z15	X16	Y16	Z16	X17	Y17	Z17	X18	Y18	Z18	X19	Y19	Z19	X20	Y20	Z20	X21	Y21	Z21	X22	Y22	Z22	X23	Y23	Z23	X24	Y24	Z24	X25	Y25	Z25	X26	Y26	Z26	X27	Y27	Z27	X28	Y28	Z28	X29	Y29	Z29	X30	Y30	Z30	X31	Y31	Z31	X32	Y32	Z32	X33	Y33	Z33	X34	Y34	Z34	X35	Y35	Z35	X36	Y36	Z36	X37	Y37	Z37	X38	Y38	Z38	X39	Y39	Z39	X40	Y40	Z40	X41	Y41	Z41	X42	Y42	Z42	X43	Y43	Z43	X44	Y44	Z44	X45	Y45	Z45	X46	Y46	Z46	X47	Y47	Z47	X48	Y48	Z48	X49	Y49	Z49	X50	Y50	Z50	X51	Y51	Z51	X52	Y52	Z52	X53	Y53	Z53	X54	Y54	Z54	X55	Y55	Z55	X56	Y56	Z56	X57	Y57	Z57	X58	Y58	Z58	X59	Y59	Z59	X60	Y60	Z60	X61	Y61	Z61	

1163	5.81	-181.3886108398438	1698.600708007813	-825.4878540039065	-316.4793395996094	1670.889038085938	-845.9412231445315	-336.8362731933594	1658.000854492188	-711.3599853515626	-371.5204467773438	1550.06201171875	-769.7468872070315	-421.4627075195314	1215.081420898438	-750.4479980468751	-248.1992645263672	1463.741333007813	-772.593444824219	-277.2488708496094	1490.850830078125	-926.803649902344	-210.9378967285157	1384.557006835938	-1012.847106933594	-165.157943725586	1399.211791992188	-996.5637207031252	-155.2912139892578	1344.85546875	-1023.017578125	-58.94752120971681	1299.05908203125	-1029.305297851563	-71.87994384765626	1248.6083984375	-979.0601196289065	201.5037231445313	1284.594360351563	-921.3908691406252	203.7857360839844	1275.680541992188	-995.0788574218752	283.7448425292969	1283.167236328125	-916.2503662109377	-252.7263488769532	1492.849853515625	-619.8798828125001	-179.5486755371094	1362.011108398438	-526.7991943359376	-135.6978912353516	1373.482299804688	-542.5185546875001	-126.1371078491211	1318.408935546875	-521.3141479492189	-43.23913192749024	1277.10009765625	-522.4608764648439	-63.31325531005861	1225.667724609375	-585.5253906250001	199.7842407226563	1244.04541015625	-654.3314208984376	215.3660430908204	1251.786376953125	-580.7059326171876	291.7790527343751	1245.685791015625	-664.9977416992189	-273.1706848144532	1064.587280273438	-900.7669677734377	-243.5920104980469	1032.818725585938	-649.4959106445314	-439.0048828125001	1112.034423828125	-746.3605346679689	-455.8947753906251	1086.327880859375	-775.8776855468752	-451.5631713867189	1079.04931640625	-720.0996093750001	-263.0672607421876	746.1991577148439	-951.4099121093752	-220.3955535888672	674.5494995117189	-933.5254516601565	-181.8668518066407	682.8498535156251	-903.5066528320315	-242.9320831298829	620.1309814453126	-928.7710571289065	-240.1371002197266	561.7990112304689	-931.6569824218752	-252.6632385253907	554.4124145507814	-795.8701171875002	-228.4258270263672	359.5328063964844	-884.0051879882815	-288.9040222167969	330.4532775878907	-941.5043945312502	-252.395492553711	316.5833435058594	-918.157653808594	-268.4872131347657	239.1618347167969	-886.994079589844	-351.8422851562501	136.7988739013672	-918.999206542969	-339.5034790039063	154.6629943847657	-833.8259277343752	-416.627899169922	114.4982070922852	-879.3232421875002	-200.8323516845704	63.58937072753908	-836.0569458007815	-197.5657043457032	66.0772171020508	-874.4497680664065	-234.8780212402344	52.78054809570314	-929.4907226562502	-348.6571350097657	799.9429321289065	-594.2948608398439	-317.2320251464844	741.4109497070314	-596.8093261718751	-283.6414184570313	741.1660766601564	-600.6434936523439	-350.2846374511719	668.3383178710939	-622.9334106445314	-340.8602905273438	518.2091674804689	-649.7616577148439	-339.0791625976563	516.0961914062501	-780.993835449219	-299.6572265625001	363.1770935058594	-749.6688842773439	-320.8173217773438	276.2426147460938	-690.0373535156251	-295.8576354980469	278.2372741699219	-731.4607543945314	-314.2321777343751	235.9646453857422	-767.4977416992189	-365.8635559082032	103.5253524780274	-726.6260986328126	-356.8781738281251	128.8029174804688	-809.9781494140627	-433.3371582031251	84.30223083496095	-783.3914184570315	-208.7388305664063	54.06599044799806	-787.7333984375002	-210.4065399169922	52.52617645263673	-746.1981201171876	-256.2780151367188	35.20841598510743	-700.4873046875001	
1164	5.815	-181.5591888427735	1698.4892578125	-825.558044433594	-316.5867614746094	1670.865478515625	-846.0571289062502	-336.9619750976563	1658.021362304688	-711.4821166992189	-371.7280883789063	1550.04443359375	-769.9866943359377	-421.4728088378907	1215.014526367188	-750.7839965820314	-248.4058074951172	1463.711791992188	-772.7978515625002	-277.3454284667969	1490.861694335938	-926.9566040039065	-211.1294403076172	1384.530639648438	-1013.1162109375	-165.2847900390625	1399.188842773438	-996.7009887695315	-155.4566497802735	1344.849243164063	-1023.159240722656	-59.1963577270508	1298.935424804688	-1029.504150390625	-72.07415771484376	1248.536010742188	-979.2572021484377	201.3496093750001	1284.357666015625	-921.450378417969	203.5630035400391	1275.36279296875	-995.1248779296877	283.5426635742188	1282.87353515625	-916.3389892578127	-252.9433898925782	1492.766235351563	-619.9903564453126	-179.859848022461	1361.81201171875	-526.8450317382814	-136.0215301513672	1373.21630859375	-542.5916137695314	-126.4712219238282	1318.183471679688	-521.4662475585939	-43.57255554199219	1276.812377929688	-522.5751953125001	-63.62814331054689	1225.41796875	-585.7558593750001	200.5570526123047	1246.361328125	-655.1161499023439	215.0955047607422	1251.406616210938	-580.8456420898439	291.4507751464844	1245.344482421875	-664.9868774414064	-272.8901062011719	1064.600830078125	-900.9197387695315	-243.5976257324219	1032.82470703125	-649.6535034179689	-438.9878234863282	1111.944580078125	-746.6699829101564	-455.7730407714845	1086.245483398438	-776.1605224609377	-451.502166748047	1078.988037109375	-720.3663330078126	-263.5832214355469	746.0424194335939	-951.7276611328127	-220.8614654541016	674.2362670898439	-933.9512939453127	-182.0471954345703	682.6666259765626	-904.287780761719	-243.6914062500001	619.8659057617189	-929.1998291015627	-240.9840393066407	561.5063476562501	-932.1250000000002	-253.3955688476563	554.0208129882814	-796.4169921875002	-229.3157501220704	359.3271789550782	-884.4649658203127	-290.2704162597657	330.1973571777344	-941.986999511719	-253.2063598632813	316.2125854492188	-918.6902465820315	-269.4003295898438	238.8168945312501	-887.4895629882815	-352.8642578125001	136.5171813964844	-919.3717041015627	-340.1781921386719	154.3069610595703	-834.1978759765627	-417.5591430664064	114.2976837158203	-879.5876464843752	-201.8316192626954	62.99546051025392	-836.6798095703127	-198.5189514160157	65.70965576171876	-874.8045654296877	-236.0767974853516	52.28287506103517	-930.0718994140627	-348.7195434570313	799.9576416015627	-594.4185791015626	-317.2767639160157	741.4459838867189	-596.9473876953126	-283.6989746093751	741.1806030273439	-600.7938232421876	-350.3146362304688	668.3424072265626	-623.0585327148439	-340.9450073242188	518.2113037109376	-649.8203735351564	-339.1529541015626	516.0933227539064	-781.1032714843752	-299.9664001464844	363.0683898925782	-749.6488647460939	-320.8760070800782	276.3657836914063	-689.9536132812501	-295.8693847656251	278.2406311035157	-731.4790649414064	-314.2922058105469	235.9341583251954	-767.5172119140626	-365.8697509765626	103.5306549072266	-726.6131591796876	-356.9372253417969	128.8090972900391	-810.0289306640627	-433.3640136718751	84.27605438232423	-783.381774902344	-208.7631225585938	54.0007667541504	-787.8040771484377	-210.4056243896485	52.53244018554689	-746.1934204101564	-256.2642517089844	35.21001052856446	-700.4785156250001	
1165	5.82	-178.1241912841797	1698.911865234375	-825.8747558593752	-316.6762390136719	1670.888305664063	-846.1534423828127	-337.0242919921876	1657.85595703125	-711.6326904296876	-371.8474121093751	1550.024291992188	-770.1993408203127	-421.4930725097657	1214.91943359375	-751.1400146484376	-248.5111083984376	1463.751953125	-772.8487548828127	-277.4620056152344	1490.873657226563	-927.1446533203127	-211.2461242675782	1384.505859375	-1013.299377441406	-165.4344787597657	1399.151611328125	-996.898620605469	-155.6381225585938	1344.792602539063	-1023.333740234375	-59.41229629516603	1298.875244140625	-1029.7158203125	-72.26950836181642	1248.49658203125	-979.455749511719	201.1642303466797	1284.124633789063	-921.5410156250002	203.4972076416016	1275.118408203125	-995.300720214844	283.3807983398438	1282.640625	-916.4378051757815	-253.1478271484376	1492.707763671875	-620.1114501953126	-180.130844116211	1361.633178710938	-527.0137939453126	-136.3859558105469	1373.010864257813	-542.7145385742189	-126.8785629272461	1317.927734375	-521.6263427734376	-43.88025665283204	1276.547607421875	-522.7169799804689	-64.01551818847658	1225.213134765625	-585.8939819335939	200.2032928466797	1246.113891601563	-655.2083129882814	214.7651062011719	1250.965087890625	-580.8399047851564	291.0953979492188	1245.030395507813	-665.0971069335939	-272.6822509765626	1064.525146484375	-901.1384887695315	-243.6355133056641	1032.822265625	-649.8068237304689	-438.9555053710939	1111.874633789063	-747.0045166015626	-455.8074035644532	1086.125610351563	-776.3562011718752	-451.4389648437501	1078.900268554688	-720.6575927734376	-264.1059265136719	745.8656616210939	-952.064392089844	-221.745834350586	673.9722900390626	-934.2473144531252	-183.0010986328125	682.1257934570314	-904.495056152344	-244.495346069336	619.6065063476564	-929.5992431640627	-241.9511718750001	561.2501831054689	-932.6348266601565	-254.2792663574219	553.6480102539064	-796.796813964844	-230.2191009521485	359.0362854003907	-885.0404052734377	-291.3644714355469	329.8830871582032	-942.2811279296877	-254.1215820312501	316.0259094238282	-918.9099121093752	-270.4027404785157	238.5276947021485	-888.115661621094	-353.7515258789063	136.2325592041016	-919.709167480469	-340.9013366699219	153.927001953125	-834.5306396484377	-418.5739746093751	114.0968170166016	-879.8315429687502	-202.8549957275391	62.46388244628908	-837.2536621093752	-199.6121826171876	65.02354431152345	-875.3380126953127	-237.0777893066407	51.82892227172853	-930.4670410156252	-348.7697143554688	799.990417480469	-594.5440063476564	-317.3890991210938	741.4877319335939	-597.0265502929689	-283.7511596679688	741.1983032226564	-600.8898925781251	-350.3499145507813	668.3762817382814	-623.1619873046876	-340.9795227050782	518.2520751953126	-649.8818359375001	-338.9408569335938	515.9660034179689	-780.998229980469	-300.1186218261719	363.0255432128907	-749.6295166015626	-320.8776245117188	276.3843383789063	-689.9317016601564	-295.9094543457032	278.2378540039063	-731.4644775390626	-314.4891662597657	235.9006042480469	-767.4785156250001	-365.8818054199219	103.5358657836914	-726.6009521484376	-357.0631713867188	128.839599609375	-810.016540527344	-433.3672485351564	84.26140594482423	-783.3994140625002	-208.7250061035157	54.06689834594728	-787.7211914062502	-210.4192810058594	52.53525924682619	-746.1552124023439	-256.2749023437501	35.18852615356446	-700.4559936523439	
1166	5.825	-181.4571380615235	1698.378540039063	-825.768493652344	-316.7922973632813	1670.855712890625	-846.319763183594	-337.1506347656251	1657.803344726563	-711.7677001953126	-371.9803161621094	1549.985961914063	-770.3889770507815	-421.5571899414064	1214.876220703125	-751.4633789062501	-248.7221984863282	1463.720703125	-773.0875244140627	-277.5843811035157	1490.9111328125	-927.290954589844	-211.3072204589844	1384.5185546875	-1013.475402832031	-165.5413208007813	1399.108276367188	-997.0859985351565	-155.8783874511719	1344.683715820313	-1023.58349609375	-59.54261779785158	1298.821655273438	-1029.924194335938	-72.3848342895508	1248.397094726563	-979.6354980468752	201.0884246826172	1283.790649414063	-921.590026855469	203.1774139404297	1274.845825195313	-995.4882812500002	283.1571350097657	1282.337890625	-916.539245605469	-253.3566589355469	1492.619873046875	-620.2037353515626	-180.504150390625	1361.4248046875	-527.1674804687501	-136.6671600341797	1372.804565429688	-542.8170166015626	-127.2711791992188	1317.686157226563	-521.8368530273439	-44.24335861206055	1276.27880859375	-522.8435058593751	-64.32858276367189	1224.982055664063	-586.0877685546876	199.8150482177735	1245.71728515625	-655.1721801757814	214.4314117431641	1250.6123046875	-580.7702026367189	290.8186950683594	1244.776733398438	-665.1866455078126	-272.4947509765626	1064.434692382813	-901.340759277344	-243.6632232666016	1032.860107421875	-649.9058837890626	-438.9708557128907	1111.817016601563	-747.2807617187501	-455.8679504394532	1086.035034179688	-776.5659790039065	-451.3908691406251	1078.865844726563	-720.9407958984376	-264.7353515625001	745.5402832031251	-952.4231567382815	-222.4985504150391	673.6333618164064	-934.731872558594	-183.6319580078125	681.7033691406251	-904.910339355469	-245.4221343994141	619.3354492187501	-929.992614746094	-242.9381103515626	560.9329223632814	-933.0123291015627	-254.9731750488282	553.2824096679689	-797.192077636719	-230.9894104003907	358.8884582519532	-885.3802490234377	-292.2736206054688	329.5956726074219	-942.7105712890627	-255.1653594970704	315.7258605957032	-919.4868164062502	-271.3941955566407	238.2197723388672	-888.446716308594	-354.8551940917969	136.0021362304688	-920.0510253906252	-341.6128234863282	153.5261840820313	-834.878601074219	-419.5343322753907	113.9448852539063	-880.0607910156252	-203.8870849609376	61.77498626708986	-837.8037109375002	-200.7413024902344	64.34361267089845	-876.1323852539065	-238.3158874511719	51.31273651123048	-931.065124511719	-348.8133544921876	800.0107421875002	-594.6882324218751	-317.4099426269532	741.5055541992189	-597.0900268554689	-283.7866210937501	741.2561645507814	-601.0189819335939	-350.4180297851563	668.3988037109376	-623.2247314453126	-341.0065612792969	518.2438354492189	-649.9132080078126	-339.0057678222657	515.9199829101564	-781.0722656250002	-300.3279113769532	362.9141845703126	-749.6652221679689	-320.8864135742188	276.4129333496094	-689.9363403320314	-295.9433593750001	278.2463684082032	-731.4542846679689	-314.5286254882813	235.8637695312501	-767.4588623046876	-365.8899841308594	103.4777755737305	-726.5908813476564	-357.0342407226563	128.8274841308594	-810.0200805664065	-433.3834838867189	84.23755645751955	-783.3654785156252	-208.7210998535157	54.06899642944337	-787.6864013671877	-210.4360809326172	52.5419158935547	-746.1466674804689	-256.2602539062501	35.21018981933594	-700.4725952148439	
